<svg id="Layer_1" data-name="Layer 1" xmlns="http://www.w3.org/2000/svg" viewBox="0 0 360 360"><defs><style>.cls-1{fill:#faa919;}.cls-2{fill:#fff;}</style></defs><polygon class="cls-1" points="253.21 307.42 278.12 274.52 150.21 177.71 278.01 82.37 253.33 49.3 81.52 177.47 253.21 307.42"/><circle class="cls-1" cx="114.64" cy="178.25" r="64.92"/><circle class="cls-1" cx="244.34" cy="82.42" r="64.92"/><circle class="cls-1" cx="244.34" cy="276.58" r="64.92"/><path class="cls-2" d="M125.87,149.32a30.38,30.38,0,0,1,13.93,13c-40.75,12.56-32.55-30.73-32.55-30.73-27.57,30.29,2.71,46.84-12,56.21-13.77,3.49-12-14.95-11.77-16.69A30.19,30.19,0,0,1,93,154.33a39.15,39.15,0,1,0,32.88-5Z"/><path class="cls-2" d="M255.44,247.1a30.39,30.39,0,0,1,13.94,13c-40.75,12.56-32.55-30.72-32.55-30.72-27.57,30.28,2.71,46.84-12,56.21-13.76,3.48-12-14.95-11.76-16.69a30.19,30.19,0,0,1,9.47-16.79,39.15,39.15,0,1,0,32.87-5Z"/><path class="cls-2" d="M255.44,54.07a30.46,30.46,0,0,1,13.94,13c-40.75,12.56-32.55-30.72-32.55-30.72-27.57,30.28,2.71,46.84-12,56.21-13.76,3.48-12-15-11.76-16.69a30.19,30.19,0,0,1,9.47-16.79,39.14,39.14,0,1,0,32.87-5Z"/></svg>