<svg id="Layer_1" data-name="Layer 1" xmlns="http://www.w3.org/2000/svg" viewBox="20 0 792 234"><defs><style>.cls-1{fill:#666;}.cls-2{fill:#fff;}.cls-3{fill:#faa919;}.cls-4{fill:#fff;}</style></defs><path class="cls-2" d="M213.72,97.47v11.08c0,13.64-6.58,21.07-20,21.07h-6.33v32H174V76.4h19.73C207.14,76.4,213.72,83.82,213.72,97.47Zm-26.31-8.9v28.87h6.33c4.27,0,6.58-2,6.58-8V96.61c0-6.09-2.31-8-6.58-8Z"/><path class="cls-2" d="M260.12,161.65c-.73-2.19-1.21-3.53-1.21-10.47v-13.4c0-7.92-2.68-10.84-8.77-10.84h-4.63v34.71h-13.4V76.4h20.22c13.88,0,19.85,6.45,19.85,19.6v6.7c0,8.77-2.8,14.37-8.77,17.18v.24c6.7,2.8,8.89,9.13,8.89,18V151.3c0,4.14.13,7.18,1.46,10.35ZM245.51,88.57v26.19h5.24c5,0,8-2.19,8-9V97.34c0-6.09-2.07-8.77-6.82-8.77Z"/><path class="cls-2" d="M292.16,96.86c0-13.65,7.18-21.44,20.34-21.44s20.34,7.79,20.34,21.44v44.33c0,13.64-7.19,21.44-20.34,21.44s-20.34-7.8-20.34-21.44ZM305.55,142c0,6.09,2.68,8.41,6.95,8.41s6.94-2.32,6.94-8.41V96c0-6.09-2.68-8.4-6.94-8.4s-6.95,2.31-6.95,8.4Z"/><path class="cls-2" d="M381.92,136.93h.25l9-60.53h18.63v85.25H397.15V100.51h-.25l-9,61.14H375.22l-9.74-60.29h-.24v60.29h-11.7V76.4h18.64Z"/><path class="cls-2" d="M445.14,112.33h18.39V124.5H445.14v25h23.14v12.18H431.74V76.4h36.54V88.57H445.14Z"/><path class="cls-2" d="M484.84,76.4h41.41V88.57h-14v73.08H498.85V88.57h-14Z"/><path class="cls-2" d="M557.68,161.65h-13.4V76.4h13.4v36.53H572.9V76.4h13.64v85.25H572.9V125.11H557.68Z"/><path class="cls-2" d="M621.86,112.33h18.39V124.5H621.86v25H645v12.18H608.46V76.4H645V88.57H621.86Z"/><path class="cls-2" d="M678.25,76.4v65.76c0,6.09,2.68,8.29,7,8.29s6.94-2.2,6.94-8.29V76.4H704.8v64.91c0,13.64-6.81,21.44-20,21.44s-20-7.8-20-21.44V76.4Z"/><path class="cls-2" d="M744.15,75.42c13,0,19.73,7.79,19.73,21.44v2.68H751.21V96c0-6.09-2.43-8.4-6.7-8.4s-6.7,2.31-6.7,8.4,2.68,10.84,11.45,18.52c11.21,9.86,14.74,16.93,14.74,26.67,0,13.64-6.82,21.44-20,21.44s-20-7.8-20-21.44V136h12.67V142c0,6.09,2.68,8.28,6.94,8.28s6.94-2.19,6.94-8.28-2.68-10.84-11.45-18.51c-11.2-9.87-14.73-16.93-14.73-26.67C724.42,83.21,731.12,75.42,744.15,75.42Z"/><path class="cls-3" d="M251.45,189.43A6.22,6.22,0,0,1,249,189a6,6,0,0,1-1.95-1.31,6.06,6.06,0,0,1-1.28-1.95,6.32,6.32,0,0,1-.46-2.42v0a6.18,6.18,0,0,1,.46-2.4,6.38,6.38,0,0,1,1.28-2,6,6,0,0,1,2-1.33,6.31,6.31,0,0,1,2.53-.49,8,8,0,0,1,1.53.14,7.18,7.18,0,0,1,1.26.37,6.17,6.17,0,0,1,1,.58,6.49,6.49,0,0,1,.89.76l-1.68,1.93a6.3,6.3,0,0,0-1.42-1,3.66,3.66,0,0,0-1.64-.36,3.39,3.39,0,0,0-1.39.29,3.15,3.15,0,0,0-1.1.8,3.79,3.79,0,0,0-.72,1.19,4.06,4.06,0,0,0-.26,1.45v0a4.1,4.1,0,0,0,.26,1.45,3.78,3.78,0,0,0,.71,1.2,3.28,3.28,0,0,0,2.5,1.11,3.67,3.67,0,0,0,1.74-.37,6.64,6.64,0,0,0,1.41-1l1.68,1.69a8.81,8.81,0,0,1-1,.89,5.72,5.72,0,0,1-1.09.68,5.59,5.59,0,0,1-1.29.43A8.33,8.33,0,0,1,251.45,189.43Z"/><path class="cls-3" d="M265.3,177.26h5.47a4.72,4.72,0,0,1,3.49,1.21,3.73,3.73,0,0,1,1,2.74v0a3.72,3.72,0,0,1-.71,2.37,4.06,4.06,0,0,1-1.85,1.34l2.92,4.28h-3.07L270,185.4h-2.07v3.83H265.3Zm5.3,5.81a2.19,2.19,0,0,0,1.5-.46,1.59,1.59,0,0,0,.52-1.23v0a1.52,1.52,0,0,0-.55-1.28,2.43,2.43,0,0,0-1.52-.43h-2.62v3.44Z"/><path class="cls-3" d="M284.5,177.26h9v2.34H287.1V182h5.64v2.34H287.1v2.51h6.5v2.35h-9.1Z"/><path class="cls-3" d="M306.9,177.17h2.43l5.13,12.06h-2.75l-1.1-2.69h-5.06l-1.1,2.69h-2.68Zm2.77,7.05-1.59-3.89-1.59,3.89Z"/><path class="cls-3" d="M325.93,179.68h-3.64v-2.42h9.92v2.42h-3.64v9.55h-2.64Z"/><path class="cls-3" d="M341.06,177.26h9v2.34h-6.42V182h5.65v2.34h-5.65v2.51h6.5v2.35h-9.1Z"/><path class="cls-3" d="M374.17,185.75a2.53,2.53,0,0,1-1-.19,2.5,2.5,0,0,1-.81-.54,2.44,2.44,0,0,1-.55-.8,2.55,2.55,0,0,1-.2-1v0a2.54,2.54,0,0,1,.2-1,2.38,2.38,0,0,1,.55-.81,2.64,2.64,0,0,1,.81-.53,2.55,2.55,0,0,1,2,0,2.64,2.64,0,0,1,.81.53,2.67,2.67,0,0,1,.54.81,2.38,2.38,0,0,1,.21,1v0a2.39,2.39,0,0,1-.21,1,2.75,2.75,0,0,1-.54.8,2.5,2.5,0,0,1-.81.54A2.53,2.53,0,0,1,374.17,185.75Z"/><path class="cls-3" d="M403,189.4a8,8,0,0,1-2.69-.47,7.2,7.2,0,0,1-2.39-1.45l1.55-1.86a7.9,7.9,0,0,0,1.69,1.06,4.5,4.5,0,0,0,1.89.39,2.29,2.29,0,0,0,1.27-.3.94.94,0,0,0,.45-.83v0a1.06,1.06,0,0,0-.09-.45.9.9,0,0,0-.36-.37,3.24,3.24,0,0,0-.74-.34,9.92,9.92,0,0,0-1.22-.36,15.58,15.58,0,0,1-1.65-.5,4.76,4.76,0,0,1-1.25-.67,2.79,2.79,0,0,1-.8-1,3.48,3.48,0,0,1-.28-1.49v0a3.56,3.56,0,0,1,.3-1.48,3.5,3.5,0,0,1,.86-1.13,3.87,3.87,0,0,1,1.32-.74,5.31,5.31,0,0,1,1.69-.25,7.18,7.18,0,0,1,2.42.39,7,7,0,0,1,2,1.13l-1.37,2a9.12,9.12,0,0,0-1.57-.86,4.09,4.09,0,0,0-1.54-.32,1.87,1.87,0,0,0-1.16.3.92.92,0,0,0-.38.74v0a.93.93,0,0,0,.51.89,4,4,0,0,0,.8.32c.34.11.76.23,1.28.36a12.8,12.8,0,0,1,1.62.54,4.66,4.66,0,0,1,1.2.72,2.77,2.77,0,0,1,.73,1,3.29,3.29,0,0,1,.25,1.35v0a3.78,3.78,0,0,1-.32,1.58,3.22,3.22,0,0,1-.9,1.16,4.12,4.12,0,0,1-1.38.72A6.15,6.15,0,0,1,403,189.4Z"/><path class="cls-3" d="M416.47,177.26h2.64V182H424v-4.73h2.64v12H424v-4.81h-4.85v4.81h-2.64Z"/><path class="cls-3" d="M440.41,177.17h2.43L448,189.23h-2.75l-1.1-2.69h-5.06L438,189.23h-2.69Zm2.77,7.05-1.59-3.89L440,184.22Z"/><path class="cls-3" d="M456.66,177.26h5.47a4.73,4.73,0,0,1,3.49,1.21,3.73,3.73,0,0,1,1,2.74v0a3.72,3.72,0,0,1-.71,2.37,4.06,4.06,0,0,1-1.85,1.34l2.92,4.28h-3.08l-2.56-3.83h-2.07v3.83h-2.63Zm5.3,5.81a2.14,2.14,0,0,0,1.49-.46,1.57,1.57,0,0,0,.53-1.23v0a1.54,1.54,0,0,0-.55-1.28,2.45,2.45,0,0,0-1.52-.43h-2.62v3.44Z"/><path class="cls-3" d="M475.86,177.26h9v2.34h-6.41V182h5.64v2.34h-5.64v2.51H485v2.35h-9.1Z"/><path class="cls-3" d="M509,185.75a2.53,2.53,0,0,1-1-.19,2.5,2.5,0,0,1-.81-.54,2.6,2.6,0,0,1-.55-.8,2.55,2.55,0,0,1-.2-1v0a2.52,2.52,0,0,1,.75-1.8,2.64,2.64,0,0,1,.81-.53,2.58,2.58,0,0,1,2,0,2.51,2.51,0,0,1,1.35,1.34,2.54,2.54,0,0,1,.2,1v0a2.55,2.55,0,0,1-.2,1,2.78,2.78,0,0,1-.55.8,2.46,2.46,0,0,1-1.8.73Z"/><path class="cls-3" d="M539.09,189.43a6.14,6.14,0,0,1-2.44-.48,5.87,5.87,0,0,1-1.95-1.31,5.75,5.75,0,0,1-1.28-1.95,6.32,6.32,0,0,1-.47-2.42v0a6.19,6.19,0,0,1,.47-2.4,6,6,0,0,1,1.28-2,6,6,0,0,1,2-1.33,6.34,6.34,0,0,1,2.53-.49,8.16,8.16,0,0,1,1.54.14,6.82,6.82,0,0,1,1.25.37,5.9,5.9,0,0,1,1,.58,8,8,0,0,1,.89.76l-1.68,1.93a6.35,6.35,0,0,0-1.43-1,3.62,3.62,0,0,0-1.63-.36,3.36,3.36,0,0,0-1.39.29,3.29,3.29,0,0,0-1.11.8,3.79,3.79,0,0,0-.72,1.19,4.05,4.05,0,0,0-.25,1.45v0a4.09,4.09,0,0,0,.25,1.45,3.78,3.78,0,0,0,.71,1.2,3.42,3.42,0,0,0,1.1.81,3.27,3.27,0,0,0,1.41.3,3.66,3.66,0,0,0,1.73-.37,6.17,6.17,0,0,0,1.41-1l1.68,1.69a8.81,8.81,0,0,1-1,.89,5.5,5.5,0,0,1-2.37,1.11A8.44,8.44,0,0,1,539.09,189.43Z"/><path class="cls-3" d="M552.94,177.26h2.64V182h4.85v-4.73h2.64v12h-2.64v-4.81h-4.85v4.81h-2.64Z"/><path class="cls-3" d="M576.88,177.17h2.43l5.13,12.06h-2.75l-1.1-2.69h-5.06l-1.09,2.69h-2.69Zm2.77,7.05-1.59-3.89-1.59,3.89Z"/><path class="cls-3" d="M593.13,177.26h2.63v9.59h6v2.38h-8.6Z"/><path class="cls-3" d="M610.55,177.26h2.63v9.59h6v2.38h-8.6Z"/><path class="cls-3" d="M628,177.26h9v2.34h-6.42V182h5.65v2.34h-5.65v2.51h6.5v2.35H628Z"/><path class="cls-3" d="M646.27,177.26h2.43l5.61,7.37v-7.37h2.6v12h-2.24l-5.8-7.61v7.61h-2.6Z"/><path class="cls-3" d="M672.38,189.43a6.82,6.82,0,0,1-2.56-.46,5.73,5.73,0,0,1-3.27-3.23,6.46,6.46,0,0,1-.46-2.47v0a6,6,0,0,1,.47-2.4,6.09,6.09,0,0,1,3.29-3.3,6.24,6.24,0,0,1,2.51-.49,9.37,9.37,0,0,1,1.47.11,7.51,7.51,0,0,1,1.22.32,6.1,6.1,0,0,1,1.06.51,9,9,0,0,1,1,.7l-1.66,2a7.63,7.63,0,0,0-.69-.51,4.38,4.38,0,0,0-.71-.38,4.56,4.56,0,0,0-.79-.24,5.49,5.49,0,0,0-.94-.08,3,3,0,0,0-1.34.3,3.79,3.79,0,0,0-1.1.8,3.71,3.71,0,0,0-.73,1.19,3.86,3.86,0,0,0-.27,1.45v0a4.19,4.19,0,0,0,.27,1.52,3.39,3.39,0,0,0,.75,1.2,3.31,3.31,0,0,0,1.15.8,3.59,3.59,0,0,0,1.46.29,4.18,4.18,0,0,0,2.48-.73v-1.72H672.3v-2.28h5.19v5.2a8.73,8.73,0,0,1-2.19,1.35A7.28,7.28,0,0,1,672.38,189.43Z"/><path class="cls-3" d="M686.86,177.26h9v2.34h-6.42V182h5.65v2.34h-5.65v2.51H696v2.35h-9.1Z"/><polygon class="cls-3" points="121.63 176.47 133.45 160.85 72.72 114.88 133.4 69.61 121.68 53.9 40.1 114.76 121.63 176.47"/><circle class="cls-3" cx="55.83" cy="115.13" r="30.83"/><circle class="cls-3" cx="117.41" cy="69.63" r="30.83"/><circle class="cls-3" cx="117.41" cy="161.83" r="30.83"/><path class="cls-4" d="M61.16,101.4a14.42,14.42,0,0,1,6.61,6.17C48.42,113.54,52.32,93,52.32,93c-13.1,14.38,1.28,22.25-5.69,26.7-6.53,1.65-5.68-7.1-5.58-7.93a14.33,14.33,0,0,1,4.49-8,18.59,18.59,0,1,0,15.62-2.38Z"/><path class="cls-4" d="M122.69,147.83a14.5,14.5,0,0,1,6.62,6.17c-19.36,6-15.46-14.59-15.46-14.59-13.1,14.39,1.28,22.25-5.68,26.7-6.54,1.65-5.69-7.1-5.59-7.93a14.28,14.28,0,0,1,4.5-8,18.59,18.59,0,1,0,15.61-2.38Z"/><path class="cls-4" d="M122.69,56.17a14.46,14.46,0,0,1,6.62,6.18c-19.36,6-15.46-14.59-15.46-14.59-13.1,14.38,1.28,22.24-5.68,26.69-6.54,1.65-5.69-7.1-5.59-7.93a14.32,14.32,0,0,1,4.5-8,18.59,18.59,0,1,0,15.61-2.38Z"/></svg>