<svg id="Layer_1" data-name="Layer 1" xmlns="http://www.w3.org/2000/svg" viewBox="0 20 792 184"><defs><style>.cls-1{fill:#666;}.cls-2{fill:#fff;}.cls-3{fill:#faa919;}.cls-4{fill:#fff;}</style></defs><path class="cls-2" d="M213.72,97.47v11.08c0,13.64-6.58,21.07-20,21.07h-6.33v32H174V76.4h19.73C207.14,76.4,213.72,83.82,213.72,97.47Zm-26.31-8.9v28.87h6.33c4.27,0,6.58-2,6.58-8V96.61c0-6.09-2.31-8-6.58-8Z"/><path class="cls-2" d="M260.12,161.65c-.73-2.19-1.21-3.53-1.21-10.47v-13.4c0-7.92-2.68-10.84-8.77-10.84h-4.63v34.71h-13.4V76.4h20.22c13.88,0,19.85,6.45,19.85,19.6v6.7c0,8.77-2.8,14.37-8.77,17.18v.24c6.7,2.8,8.89,9.13,8.89,18V151.3c0,4.14.13,7.18,1.46,10.35ZM245.51,88.57v26.19h5.24c5,0,8-2.19,8-9V97.34c0-6.09-2.07-8.77-6.82-8.77Z"/><path class="cls-2" d="M292.16,96.86c0-13.65,7.18-21.44,20.34-21.44s20.34,7.79,20.34,21.44v44.33c0,13.64-7.19,21.44-20.34,21.44s-20.34-7.8-20.34-21.44ZM305.55,142c0,6.09,2.68,8.41,6.95,8.41s6.94-2.32,6.94-8.41V96c0-6.09-2.68-8.4-6.94-8.4s-6.95,2.31-6.95,8.4Z"/><path class="cls-2" d="M381.92,136.93h.25l9-60.53h18.63v85.25H397.15V100.51h-.25l-9,61.14H375.22l-9.74-60.29h-.24v60.29h-11.7V76.4h18.64Z"/><path class="cls-2" d="M445.14,112.33h18.39V124.5H445.14v25h23.14v12.18H431.74V76.4h36.54V88.57H445.14Z"/><path class="cls-2" d="M484.84,76.4h41.41V88.57h-14v73.08H498.85V88.57h-14Z"/><path class="cls-2" d="M557.68,161.65h-13.4V76.4h13.4v36.53H572.9V76.4h13.64v85.25H572.9V125.11H557.68Z"/><path class="cls-2" d="M621.86,112.33h18.39V124.5H621.86v25H645v12.18H608.46V76.4H645V88.57H621.86Z"/><path class="cls-2" d="M678.25,76.4v65.76c0,6.09,2.68,8.29,7,8.29s6.94-2.2,6.94-8.29V76.4H704.8v64.91c0,13.64-6.81,21.44-20,21.44s-20-7.8-20-21.44V76.4Z"/><path class="cls-2" d="M744.15,75.42c13,0,19.73,7.79,19.73,21.44v2.68H751.21V96c0-6.09-2.43-8.4-6.7-8.4s-6.7,2.31-6.7,8.4,2.68,10.84,11.45,18.52c11.21,9.86,14.74,16.93,14.74,26.67,0,13.64-6.82,21.44-20,21.44s-20-7.8-20-21.44V136h12.67V142c0,6.09,2.68,8.28,6.94,8.28s6.94-2.19,6.94-8.28-2.68-10.84-11.45-18.51c-11.2-9.87-14.73-16.93-14.73-26.67C724.42,83.21,731.12,75.42,744.15,75.42Z"/><polygon class="cls-3" points="121.63 176.47 133.45 160.85 72.72 114.88 133.4 69.61 121.68 53.9 40.1 114.76 121.63 176.47"/><circle class="cls-3" cx="55.83" cy="115.13" r="30.83"/><circle class="cls-3" cx="117.41" cy="69.63" r="30.83"/><circle class="cls-3" cx="117.41" cy="161.83" r="30.83"/><path class="cls-4" d="M61.16,101.4a14.42,14.42,0,0,1,6.61,6.17C48.42,113.54,52.32,93,52.32,93c-13.1,14.38,1.28,22.25-5.69,26.7-6.53,1.65-5.68-7.1-5.58-7.93a14.33,14.33,0,0,1,4.49-8,18.59,18.59,0,1,0,15.62-2.38Z"/><path class="cls-4" d="M122.69,147.83a14.5,14.5,0,0,1,6.62,6.17c-19.36,6-15.46-14.59-15.46-14.59-13.1,14.39,1.28,22.25-5.68,26.7-6.54,1.65-5.69-7.1-5.59-7.93a14.28,14.28,0,0,1,4.5-8,18.59,18.59,0,1,0,15.61-2.38Z"/><path class="cls-4" d="M122.69,56.17a14.46,14.46,0,0,1,6.62,6.18c-19.36,6-15.46-14.59-15.46-14.59-13.1,14.38,1.28,22.24-5.68,26.69-6.54,1.65-5.69-7.1-5.59-7.93a14.32,14.32,0,0,1,4.5-8,18.59,18.59,0,1,0,15.61-2.38Z"/></svg>