<?xml version="1.0" encoding="iso-8859-1"?>
<!-- Generator: Adobe Illustrator 16.0.0, SVG Export Plug-In . SVG Version: 6.00 Build 0)  -->
<!DOCTYPE svg PUBLIC "-//W3C//DTD SVG 1.1//EN" "http://www.w3.org/Graphics/SVG/1.1/DTD/svg11.dtd">
<svg version="1.1" id="Layer_1" xmlns="http://www.w3.org/2000/svg" xmlns:xlink="http://www.w3.org/1999/xlink" x="0px" y="0px"
	 viewBox="0 0 674 234" style="enable-background:new 0 0 674 234;" xml:space="preserve">
<g>
	<defs>
		<rect id="SVGID_1_" x="-3" width="792" height="234"/>
	</defs>
	<clipPath id="SVGID_2_">
		<use xlink:href="#SVGID_1_"  style="overflow:visible;"/>
	</clipPath>
	<path style="display:none;clip-path:url(#SVGID_2_);fill:#666666;" d="M312.66,42.395h8.803c1.293,0,2.447,0.18,3.462,0.539
		c1.017,0.36,1.878,0.867,2.586,1.523c0.708,0.658,1.251,1.443,1.632,2.355c0.379,0.913,0.57,1.924,0.57,3.032v0.062
		c0,1.251-0.227,2.35-0.679,3.293c-0.45,0.944-1.071,1.735-1.861,2.37c-0.79,0.636-1.714,1.113-2.771,1.431
		c-1.057,0.319-2.19,0.477-3.401,0.477h-3.6v6.464h-4.741V42.395z M321.156,53.261c1.189,0,2.112-0.312,2.769-0.938
		c0.658-0.627,0.985-1.401,0.985-2.325v-0.062c0-1.067-0.344-1.877-1.03-2.431c-0.688-0.555-1.627-0.832-2.817-0.832h-3.662v6.588
		H321.156z"/>
	<path style="display:none;clip-path:url(#SVGID_2_);fill:#666666;" d="M357.842,42.395h9.851c2.729,0,4.821,0.73,6.279,2.186
		c1.23,1.231,1.847,2.874,1.847,4.925v0.061c0,1.745-0.428,3.166-1.278,4.263c-0.851,1.097-1.965,1.904-3.34,2.417l5.264,7.694
		h-5.541l-4.617-6.894h-0.062h-3.662v6.894h-4.741V42.395z M367.384,52.86c1.171,0,2.067-0.277,2.694-0.83
		c0.626-0.554,0.938-1.294,0.938-2.217v-0.06c0-1.028-0.329-1.797-0.985-2.31c-0.656-0.513-1.57-0.77-2.739-0.77h-4.709v6.187
		H367.384z"/>
	<path style="display:none;clip-path:url(#SVGID_2_);fill:#666666;" d="M415.184,64.31c-1.661,0-3.19-0.292-4.585-0.876
		c-1.396-0.587-2.602-1.375-3.617-2.371c-1.015-0.996-1.805-2.165-2.369-3.509c-0.564-1.344-0.847-2.785-0.847-4.325v-0.06
		c0-1.54,0.287-2.981,0.861-4.325c0.575-1.344,1.37-2.525,2.385-3.54c1.018-1.015,2.228-1.815,3.631-2.402
		c1.407-0.584,2.942-0.876,4.604-0.876s3.191,0.292,4.585,0.876c1.396,0.587,2.602,1.376,3.617,2.372
		c1.016,0.995,1.806,2.164,2.37,3.508c0.564,1.345,0.847,2.785,0.847,4.325v0.062c0,1.538-0.288,2.98-0.862,4.323
		c-0.574,1.344-1.369,2.525-2.385,3.54c-1.017,1.015-2.228,1.815-3.632,2.402C418.381,64.018,416.846,64.31,415.184,64.31
		 M415.246,59.94c0.943,0,1.816-0.175,2.616-0.524c0.801-0.349,1.481-0.83,2.046-1.446c0.564-0.616,1.006-1.329,1.324-2.139
		c0.317-0.81,0.478-1.679,0.478-2.602v-0.06c0-0.923-0.16-1.797-0.478-2.617c-0.318-0.82-0.77-1.539-1.354-2.154
		c-0.584-0.616-1.278-1.104-2.077-1.463c-0.8-0.359-1.673-0.537-2.617-0.537c-0.965,0-1.841,0.173-2.631,0.522
		s-1.466,0.832-2.03,1.446c-0.564,0.616-1.005,1.329-1.324,2.139c-0.319,0.812-0.478,1.679-0.478,2.602v0.062
		c0,0.923,0.158,1.795,0.478,2.615c0.319,0.822,0.77,1.539,1.354,2.156c0.585,0.614,1.272,1.102,2.063,1.461
		S414.281,59.94,415.246,59.94"/>
	<path style="display:none;clip-path:url(#SVGID_2_);fill:#666666;" d="M460.399,64.249c-1.684,0-3.093-0.317-4.231-0.954
		c-1.139-0.636-2.079-1.396-2.817-2.277l2.987-3.325c0.614,0.678,1.234,1.205,1.86,1.585c0.626,0.38,1.317,0.569,2.077,0.569
		c0.903,0,1.611-0.281,2.124-0.847c0.513-0.562,0.771-1.471,0.771-2.723V42.395h4.862v14.097c0,1.293-0.174,2.412-0.522,3.355
		c-0.35,0.945-0.852,1.745-1.508,2.402c-0.658,0.656-1.463,1.153-2.417,1.492C462.629,64.08,461.568,64.249,460.399,64.249"/>
	<polygon style="display:none;clip-path:url(#SVGID_2_);fill:#666666;" points="497.487,42.395 513.708,42.395 513.708,46.613 
		502.166,46.613 502.166,50.983 512.323,50.983 512.323,55.199 502.166,55.199 502.166,59.725 513.861,59.725 513.861,63.941 
		497.487,63.941 	"/>
	<path style="display:none;clip-path:url(#SVGID_2_);fill:#666666;" d="M552.828,64.31c-1.58,0-3.048-0.287-4.402-0.861
		c-1.354-0.575-2.522-1.36-3.508-2.355c-0.986-0.995-1.755-2.171-2.308-3.525c-0.555-1.354-0.832-2.801-0.832-4.34v-0.06
		c0-1.54,0.277-2.981,0.832-4.325c0.553-1.345,1.321-2.525,2.308-3.54c0.985-1.015,2.164-1.815,3.54-2.402
		c1.374-0.584,2.892-0.876,4.556-0.876c1.002,0,1.923,0.081,2.752,0.247c0.834,0.163,1.586,0.389,2.264,0.676
		c0.677,0.287,1.303,0.636,1.877,1.047s1.109,0.862,1.602,1.355l-3.018,3.478c-0.842-0.76-1.696-1.354-2.569-1.785
		c-0.872-0.431-1.853-0.647-2.939-0.647c-0.903,0-1.738,0.174-2.507,0.523c-0.771,0.349-1.433,0.832-1.986,1.446
		c-0.555,0.616-0.985,1.329-1.293,2.139c-0.307,0.812-0.462,1.679-0.462,2.602v0.062c0,0.923,0.155,1.795,0.462,2.615
		c0.308,0.821,0.733,1.539,1.277,2.155c0.542,0.615,1.201,1.103,1.971,1.462c0.769,0.359,1.615,0.539,2.538,0.539
		c1.23,0,2.272-0.225,3.124-0.678c0.852-0.451,1.698-1.067,2.54-1.847l3.016,3.048c-0.554,0.594-1.129,1.129-1.723,1.599
		c-0.597,0.473-1.248,0.879-1.956,1.216c-0.708,0.339-1.482,0.596-2.322,0.77C554.818,64.223,553.875,64.31,552.828,64.31"/>
	<polygon style="display:none;clip-path:url(#SVGID_2_);fill:#666666;" points="595.087,46.767 588.531,46.767 588.531,42.395 
		606.382,42.395 606.382,46.767 599.826,46.767 599.826,63.94 595.087,63.94 	"/>
	<path style="display:none;clip-path:url(#SVGID_2_);fill:#231F20;" d="M210.718,97.465v11.083c0,13.641-6.576,21.07-19.975,21.07
		h-6.332v32.033h-13.399V76.395h19.731C204.142,76.395,210.718,83.824,210.718,97.465 M184.411,88.573v28.865h6.332
		c4.263,0,6.578-1.947,6.578-8.037V96.612c0-6.088-2.315-8.039-6.578-8.039H184.411z"/>
	<path style="display:none;clip-path:url(#SVGID_2_);fill:#231F20;" d="M257.123,161.651c-0.732-2.192-1.218-3.531-1.218-10.475
		v-13.397c0-7.917-2.68-10.839-8.77-10.839h-4.627v34.711h-13.399V76.395h20.219c13.885,0,19.853,6.454,19.853,19.609v6.698
		c0,8.77-2.802,14.372-8.77,17.175v0.243c6.7,2.801,8.892,9.135,8.892,18.024V151.3c0,4.14,0.122,7.185,1.461,10.352H257.123z
		 M242.508,88.573v26.187h5.237c4.993,0,8.039-2.193,8.039-9.014v-8.403c0-6.09-2.071-8.77-6.822-8.77H242.508z"/>
	<path style="display:none;clip-path:url(#SVGID_2_);fill:#231F20;" d="M289.157,96.856c0-13.641,7.185-21.436,20.34-21.436
		c13.154,0,20.339,7.795,20.339,21.436v44.334c0,13.64-7.185,21.435-20.339,21.435c-13.155,0-20.34-7.795-20.34-21.435V96.856z
		 M302.554,142.042c0,6.091,2.68,8.405,6.943,8.405c4.262,0,6.942-2.314,6.942-8.405V96.004c0-6.09-2.68-8.404-6.942-8.404
		c-4.263,0-6.943,2.314-6.943,8.404V142.042z"/>
	<polygon style="display:none;clip-path:url(#SVGID_2_);fill:#231F20;" points="378.921,136.926 379.166,136.926 388.177,76.395 
		406.813,76.395 406.813,161.651 394.146,161.651 394.146,100.51 393.901,100.51 384.889,161.651 372.222,161.651 362.479,101.363 
		362.236,101.363 362.236,161.651 350.544,161.651 350.544,76.395 369.177,76.395 	"/>
	<polygon style="display:none;clip-path:url(#SVGID_2_);fill:#231F20;" points="442.136,112.326 460.526,112.326 460.526,124.504 
		442.136,124.504 442.136,149.472 465.277,149.472 465.277,161.651 428.738,161.651 428.738,76.395 465.277,76.395 465.277,88.574 
		442.136,88.574 	"/>
	<polygon style="display:none;clip-path:url(#SVGID_2_);fill:#231F20;" points="481.84,76.395 523.251,76.395 523.251,88.573 
		509.244,88.573 509.244,161.651 495.847,161.651 495.847,88.573 481.84,88.573 	"/>
	<polygon style="display:none;clip-path:url(#SVGID_2_);fill:#231F20;" points="554.677,161.651 541.277,161.651 541.277,76.396 
		554.677,76.396 554.677,112.934 569.9,112.934 569.9,76.396 583.542,76.396 583.542,161.651 569.9,161.651 569.9,125.113 
		554.677,125.113 	"/>
	<polygon style="display:none;clip-path:url(#SVGID_2_);fill:#231F20;" points="618.862,112.326 637.253,112.326 637.253,124.504 
		618.862,124.504 618.862,149.472 642.004,149.472 642.004,161.651 605.464,161.651 605.464,76.395 642.004,76.395 642.004,88.574 
		618.862,88.574 	"/>
	<path style="display:none;clip-path:url(#SVGID_2_);fill:#231F20;" d="M675.254,76.395v65.769c0,6.09,2.681,8.283,6.941,8.283
		c4.264,0,6.943-2.193,6.943-8.283V76.395h12.666v64.916c0,13.644-6.82,21.438-19.973,21.438c-13.155,0-19.976-7.795-19.976-21.438
		V76.395H675.254z"/>
	<path style="display:none;clip-path:url(#SVGID_2_);fill:#231F20;" d="M741.147,75.42c13.033,0,19.73,7.795,19.73,21.436v2.68
		h-12.666v-3.532c0-6.09-2.437-8.404-6.699-8.404s-6.698,2.314-6.698,8.404c0,6.212,2.679,10.839,11.449,18.512
		C757.468,124.382,761,131.445,761,141.19c0,13.64-6.819,21.435-19.975,21.435c-13.154,0-19.974-7.795-19.974-21.435v-5.238h12.666
		v6.09c0,6.091,2.68,8.283,6.941,8.283c4.264,0,6.943-2.192,6.943-8.283c0-6.212-2.68-10.841-11.448-18.512
		c-11.205-9.865-14.738-16.93-14.738-26.674C721.416,83.215,728.115,75.42,741.147,75.42"/>
	<path style="display:none;clip-path:url(#SVGID_2_);fill:#FAA919;" d="M248.448,189.432c-0.878,0-1.693-0.16-2.445-0.479
		c-0.753-0.318-1.402-0.755-1.95-1.308c-0.546-0.553-0.974-1.205-1.283-1.959c-0.307-0.751-0.46-1.556-0.46-2.411v-0.033
		c0-0.854,0.153-1.656,0.46-2.402c0.309-0.747,0.737-1.401,1.283-1.966c0.548-0.564,1.202-1.009,1.967-1.334
		c0.763-0.326,1.606-0.488,2.53-0.488c0.559,0,1.068,0.046,1.531,0.138c0.461,0.092,0.88,0.217,1.256,0.375
		c0.377,0.16,0.725,0.354,1.044,0.581c0.318,0.229,0.616,0.479,0.89,0.754l-1.677,1.932c-0.467-0.421-0.943-0.753-1.428-0.992
		c-0.484-0.238-1.029-0.358-1.633-0.358c-0.501,0-0.965,0.097-1.393,0.29c-0.427,0.193-0.796,0.463-1.103,0.805
		c-0.308,0.341-0.548,0.738-0.718,1.188c-0.171,0.451-0.258,0.932-0.258,1.446v0.033c0,0.513,0.087,0.997,0.258,1.453
		c0.17,0.457,0.407,0.854,0.71,1.197c0.302,0.342,0.666,0.612,1.093,0.813c0.428,0.198,0.899,0.299,1.411,0.299
		c0.685,0,1.263-0.126,1.735-0.376c0.474-0.252,0.944-0.593,1.411-1.027l1.677,1.693c-0.309,0.331-0.628,0.626-0.959,0.889
		c-0.33,0.262-0.691,0.487-1.085,0.676c-0.393,0.188-0.823,0.331-1.291,0.427C249.553,189.383,249.029,189.432,248.448,189.432"/>
	<path style="display:none;clip-path:url(#SVGID_2_);fill:#FAA919;" d="M262.298,177.257h5.472c1.517,0,2.679,0.403,3.489,1.214
		c0.684,0.685,1.025,1.597,1.025,2.735v0.035c0,0.968-0.236,1.758-0.71,2.367c-0.473,0.609-1.09,1.058-1.855,1.343l2.924,4.275
		h-3.078L267,185.396h-0.033h-2.035v3.831h-2.634V177.257z M267.6,183.071c0.649,0,1.147-0.155,1.496-0.463
		c0.347-0.308,0.521-0.718,0.521-1.23v-0.035c0-0.569-0.182-0.997-0.548-1.282c-0.364-0.284-0.871-0.428-1.521-0.428h-2.616v3.438
		H267.6z"/>
	<polygon style="display:none;clip-path:url(#SVGID_2_);fill:#FAA919;" points="281.5,177.257 290.512,177.257 290.512,179.6 
		284.1,179.6 284.1,182.027 289.742,182.027 289.742,184.37 284.1,184.37 284.1,186.883 290.597,186.883 290.597,189.227 
		281.5,189.227 	"/>
	<path style="display:none;clip-path:url(#SVGID_2_);fill:#FAA919;" d="M303.901,177.171h2.428l5.13,12.056h-2.754l-1.094-2.686
		h-5.061l-1.096,2.686h-2.683L303.901,177.171z M306.671,184.217l-1.591-3.883l-1.59,3.883H306.671z"/>
	<polygon style="display:none;clip-path:url(#SVGID_2_);fill:#FAA919;" points="322.933,179.685 319.291,179.685 319.291,177.257 
		329.208,177.257 329.208,179.685 325.565,179.685 325.565,189.227 322.933,189.227 	"/>
	<polygon style="display:none;clip-path:url(#SVGID_2_);fill:#FAA919;" points="338.065,177.257 347.077,177.257 347.077,179.6 
		340.665,179.6 340.665,182.027 346.307,182.027 346.307,184.37 340.665,184.37 340.665,186.883 347.162,186.883 347.162,189.227 
		338.065,189.227 	"/>
	<path style="display:none;clip-path:url(#SVGID_2_);fill:#FAA919;" d="M371.17,185.755c-0.354,0-0.685-0.065-0.992-0.195
		c-0.307-0.133-0.578-0.312-0.811-0.54c-0.234-0.229-0.418-0.496-0.548-0.803c-0.132-0.31-0.197-0.64-0.197-0.992v-0.035
		c0-0.353,0.065-0.683,0.197-0.992c0.13-0.307,0.314-0.574,0.548-0.803c0.233-0.228,0.504-0.407,0.811-0.538
		c0.307-0.132,0.638-0.196,0.992-0.196s0.685,0.064,0.992,0.196c0.307,0.131,0.576,0.311,0.803,0.538
		c0.229,0.229,0.411,0.496,0.548,0.803c0.137,0.31,0.205,0.64,0.205,0.992v0.035c0,0.353-0.068,0.683-0.205,0.992
		c-0.137,0.307-0.319,0.574-0.548,0.803c-0.227,0.229-0.496,0.407-0.803,0.54C371.855,185.689,371.524,185.755,371.17,185.755"/>
	<path style="display:none;clip-path:url(#SVGID_2_);fill:#FAA919;" d="M399.965,189.396c-0.911,0-1.807-0.157-2.686-0.47
		c-0.877-0.313-1.674-0.794-2.393-1.444l1.557-1.865c0.546,0.446,1.108,0.799,1.684,1.061c0.576,0.263,1.205,0.395,1.89,0.395
		c0.548,0,0.972-0.101,1.274-0.299c0.302-0.201,0.452-0.477,0.452-0.83v-0.035c0-0.171-0.031-0.32-0.093-0.453
		c-0.063-0.13-0.184-0.253-0.361-0.367c-0.178-0.113-0.422-0.229-0.736-0.342c-0.316-0.114-0.723-0.234-1.228-0.359
		c-0.604-0.148-1.153-0.313-1.645-0.496c-0.492-0.181-0.908-0.407-1.252-0.675c-0.343-0.269-0.609-0.601-0.797-1
		c-0.188-0.398-0.284-0.895-0.284-1.487v-0.035c0-0.546,0.103-1.041,0.305-1.479c0.205-0.438,0.492-0.816,0.859-1.136
		c0.369-0.32,0.808-0.564,1.319-0.736c0.511-0.171,1.073-0.256,1.689-0.256c0.879,0,1.686,0.131,2.42,0.393
		c0.735,0.263,1.411,0.64,2.025,1.129l-1.367,1.983c-0.536-0.365-1.061-0.652-1.573-0.863c-0.513-0.212-1.025-0.316-1.54-0.316
		c-0.512,0-0.896,0.1-1.153,0.299c-0.256,0.2-0.384,0.447-0.384,0.744v0.033c0,0.195,0.036,0.362,0.111,0.505
		c0.073,0.144,0.207,0.272,0.402,0.386c0.194,0.113,0.46,0.222,0.797,0.324c0.337,0.104,0.763,0.224,1.277,0.358
		c0.606,0.16,1.146,0.341,1.62,0.539c0.474,0.201,0.875,0.439,1.2,0.719c0.326,0.278,0.571,0.607,0.738,0.983
		c0.165,0.376,0.249,0.826,0.249,1.351v0.033c0,0.593-0.108,1.121-0.324,1.583c-0.216,0.461-0.515,0.849-0.9,1.163
		c-0.386,0.313-0.845,0.553-1.377,0.718C401.207,189.314,400.614,189.396,399.965,189.396"/>
	<polygon style="display:none;clip-path:url(#SVGID_2_);fill:#FAA919;" points="413.473,177.257 416.106,177.257 416.106,181.992 
		420.962,181.992 420.962,177.257 423.596,177.257 423.596,189.227 420.962,189.227 420.962,184.422 416.106,184.422 
		416.106,189.227 413.473,189.227 	"/>
	<path style="display:none;clip-path:url(#SVGID_2_);fill:#FAA919;" d="M437.412,177.171h2.43l5.13,12.056h-2.754l-1.094-2.686
		h-5.062l-1.096,2.686h-2.683L437.412,177.171z M440.184,184.217l-1.591-3.883l-1.59,3.883H440.184z"/>
	<path style="display:none;clip-path:url(#SVGID_2_);fill:#FAA919;" d="M453.656,177.257h5.473c1.516,0,2.678,0.403,3.488,1.214
		c0.685,0.685,1.025,1.597,1.025,2.735v0.035c0,0.968-0.236,1.758-0.71,2.367c-0.473,0.609-1.091,1.058-1.855,1.343l2.924,4.275
		h-3.077l-2.565-3.831h-0.033h-2.035v3.831h-2.634V177.257z M458.958,183.071c0.649,0,1.147-0.155,1.496-0.463
		c0.348-0.308,0.521-0.718,0.521-1.23v-0.035c0-0.569-0.183-0.997-0.548-1.282c-0.365-0.284-0.872-0.428-1.521-0.428h-2.616v3.438
		H458.958z"/>
	<polygon style="display:none;clip-path:url(#SVGID_2_);fill:#FAA919;" points="472.859,177.257 481.872,177.257 481.872,179.6 
		475.46,179.6 475.46,182.027 481.103,182.027 481.103,184.37 475.46,184.37 475.46,186.883 481.957,186.883 481.957,189.227 
		472.859,189.227 	"/>
	<path style="display:none;clip-path:url(#SVGID_2_);fill:#FAA919;" d="M505.963,185.755c-0.354,0-0.685-0.065-0.991-0.195
		c-0.308-0.133-0.578-0.312-0.812-0.54c-0.234-0.229-0.418-0.496-0.548-0.803c-0.132-0.31-0.197-0.64-0.197-0.992v-0.035
		c0-0.353,0.065-0.683,0.197-0.992c0.13-0.307,0.313-0.574,0.548-0.803c0.233-0.228,0.504-0.407,0.812-0.538
		c0.307-0.132,0.638-0.196,0.991-0.196s0.685,0.064,0.992,0.196c0.308,0.131,0.576,0.311,0.803,0.538
		c0.229,0.229,0.411,0.496,0.548,0.803c0.138,0.31,0.206,0.64,0.206,0.992v0.035c0,0.353-0.068,0.683-0.206,0.992
		c-0.137,0.307-0.318,0.574-0.548,0.803c-0.227,0.229-0.495,0.407-0.803,0.54C506.647,185.689,506.316,185.755,505.963,185.755"/>
	<path style="display:none;clip-path:url(#SVGID_2_);fill:#FAA919;" d="M536.093,189.432c-0.879,0-1.693-0.16-2.445-0.479
		c-0.753-0.318-1.402-0.755-1.951-1.308c-0.545-0.553-0.973-1.205-1.281-1.959c-0.308-0.751-0.461-1.556-0.461-2.411v-0.033
		c0-0.854,0.153-1.656,0.461-2.402c0.309-0.747,0.736-1.401,1.281-1.966c0.549-0.564,1.203-1.009,1.969-1.334
		c0.763-0.326,1.605-0.488,2.529-0.488c0.56,0,1.068,0.046,1.531,0.138c0.461,0.092,0.88,0.217,1.256,0.375
		c0.377,0.16,0.725,0.354,1.044,0.581c0.318,0.229,0.616,0.479,0.89,0.754l-1.677,1.932c-0.467-0.421-0.943-0.753-1.428-0.992
		c-0.484-0.238-1.029-0.358-1.633-0.358c-0.501,0-0.965,0.097-1.393,0.29s-0.797,0.463-1.104,0.805
		c-0.308,0.341-0.548,0.738-0.719,1.188c-0.17,0.451-0.257,0.932-0.257,1.446v0.033c0,0.513,0.087,0.997,0.257,1.453
		c0.171,0.457,0.408,0.854,0.71,1.197c0.303,0.342,0.666,0.612,1.094,0.813c0.428,0.198,0.898,0.299,1.411,0.299
		c0.685,0,1.263-0.126,1.735-0.376c0.474-0.252,0.943-0.593,1.411-1.027l1.676,1.693c-0.309,0.331-0.628,0.626-0.958,0.889
		c-0.331,0.262-0.691,0.487-1.086,0.676c-0.393,0.188-0.823,0.331-1.29,0.427C537.197,189.383,536.674,189.432,536.093,189.432"/>
	<polygon style="display:none;clip-path:url(#SVGID_2_);fill:#FAA919;" points="549.942,177.257 552.576,177.257 552.576,181.992 
		557.432,181.992 557.432,177.257 560.065,177.257 560.065,189.227 557.432,189.227 557.432,184.422 552.576,184.422 
		552.576,189.227 549.942,189.227 	"/>
	<path style="display:none;clip-path:url(#SVGID_2_);fill:#FAA919;" d="M573.882,177.171h2.43l5.13,12.056h-2.754l-1.094-2.686
		h-5.062l-1.096,2.686h-2.683L573.882,177.171z M576.653,184.217l-1.591-3.883l-1.59,3.883H576.653z"/>
	<polygon style="display:none;clip-path:url(#SVGID_2_);fill:#FAA919;" points="590.126,177.257 592.76,177.257 592.76,186.85 
		598.728,186.85 598.728,189.227 590.126,189.227 	"/>
	<polygon style="display:none;clip-path:url(#SVGID_2_);fill:#FAA919;" points="607.551,177.257 610.185,177.257 610.185,186.85 
		616.152,186.85 616.152,189.227 607.551,189.227 	"/>
	<polygon style="display:none;clip-path:url(#SVGID_2_);fill:#FAA919;" points="624.975,177.257 633.986,177.257 633.986,179.6 
		627.574,179.6 627.574,182.027 633.217,182.027 633.217,184.37 627.574,184.37 627.574,186.883 634.072,186.883 634.072,189.227 
		624.975,189.227 	"/>
	<polygon style="display:none;clip-path:url(#SVGID_2_);fill:#FAA919;" points="643.271,177.257 645.699,177.257 651.309,184.626 
		651.309,177.257 653.906,177.257 653.906,189.227 651.668,189.227 645.871,181.616 645.871,189.227 643.271,189.227 	"/>
	<path style="display:none;clip-path:url(#SVGID_2_);fill:#FAA919;" d="M669.381,189.432c-0.935,0-1.786-0.153-2.557-0.463
		c-0.77-0.308-1.431-0.734-1.983-1.282c-0.553-0.546-0.981-1.195-1.291-1.949c-0.307-0.753-0.461-1.572-0.461-2.463v-0.033
		c0-0.854,0.155-1.656,0.47-2.402c0.313-0.747,0.75-1.401,1.309-1.966c0.558-0.564,1.22-1.009,1.984-1.334
		c0.763-0.326,1.602-0.488,2.513-0.488c0.536,0,1.022,0.037,1.461,0.112c0.439,0.073,0.847,0.179,1.223,0.315
		c0.378,0.137,0.729,0.307,1.062,0.513c0.329,0.205,0.648,0.439,0.957,0.701l-1.658,2.001c-0.229-0.194-0.457-0.365-0.685-0.513
		c-0.229-0.148-0.464-0.274-0.709-0.376c-0.246-0.104-0.512-0.182-0.795-0.24c-0.286-0.057-0.6-0.085-0.94-0.085
		c-0.479,0-0.927,0.099-1.343,0.3c-0.417,0.201-0.781,0.468-1.095,0.806c-0.313,0.337-0.559,0.731-0.735,1.182
		c-0.177,0.453-0.266,0.936-0.266,1.449v0.034c0,0.549,0.089,1.054,0.266,1.516c0.177,0.465,0.428,0.867,0.753,1.209
		c0.324,0.343,0.707,0.608,1.146,0.797s0.926,0.284,1.462,0.284c0.979,0,1.807-0.242,2.479-0.725v-1.722h-2.65v-2.274h5.198v5.198
		c-0.616,0.524-1.349,0.972-2.197,1.342C671.447,189.245,670.475,189.432,669.381,189.432"/>
	<polygon style="display:none;clip-path:url(#SVGID_2_);fill:#FAA919;" points="683.864,177.257 692.876,177.257 692.876,179.6 
		686.464,179.6 686.464,182.027 692.106,182.027 692.106,184.37 686.464,184.37 686.464,186.883 692.961,186.883 692.961,189.227 
		683.864,189.227 	"/>
	<polygon style="clip-path:url(#SVGID_2_);fill:#FAA919;" points="118.627,176.473 130.455,160.85 69.716,114.879 130.4,69.608 
		118.682,53.9 37.095,114.764 	"/>
	<path style="clip-path:url(#SVGID_2_);fill:#FAA919;" d="M22,115.134c0,17.025,13.802,30.827,30.827,30.827
		c17.025,0,30.826-13.802,30.826-30.827S69.852,84.307,52.827,84.307C35.802,84.307,22,98.109,22,115.134"/>
	<path style="clip-path:url(#SVGID_2_);fill:#FAA919;" d="M83.585,69.628c0,17.025,13.802,30.827,30.827,30.827
		c17.025,0,30.826-13.802,30.826-30.827s-13.801-30.827-30.826-30.827C97.387,38.801,83.585,52.603,83.585,69.628"/>
	<path style="clip-path:url(#SVGID_2_);fill:#FAA919;" d="M83.585,161.829c0,17.025,13.802,30.827,30.827,30.827
		c17.025,0,30.826-13.802,30.826-30.827s-13.801-30.826-30.826-30.826C97.387,131.003,83.585,144.804,83.585,161.829"/>
	<path style="clip-path:url(#SVGID_2_);fill:#FFFFFF;" d="M58.155,101.396c2.815,1.294,5.138,3.472,6.619,6.177
		c-19.353,5.965-15.459-14.59-15.459-14.59c-13.092,14.381,1.288,22.242-5.681,26.693c-6.536,1.653-5.683-7.101-5.588-7.926
		c0.599-3.139,2.215-5.917,4.498-7.974c-4.972,3.337-8.246,9.009-8.246,15.447c0,10.267,8.323,18.589,18.589,18.589
		c10.267,0,18.589-8.322,18.589-18.589C71.476,110.788,65.855,103.667,58.155,101.396"/>
	<path style="clip-path:url(#SVGID_2_);fill:#FFFFFF;" d="M119.687,147.827c2.815,1.294,5.138,3.473,6.619,6.178
		c-19.353,5.964-15.459-14.59-15.459-14.59c-13.092,14.381,1.288,22.241-5.681,26.693c-6.536,1.652-5.682-7.103-5.588-7.928
		c0.599-3.138,2.215-5.917,4.498-7.973c-4.972,3.336-8.246,9.009-8.246,15.446c0,10.267,8.323,18.589,18.589,18.589
		c10.267,0,18.589-8.322,18.589-18.589C133.007,157.219,127.387,150.098,119.687,147.827"/>
	<path style="clip-path:url(#SVGID_2_);fill:#FFFFFF;" d="M119.687,56.168c2.815,1.294,5.138,3.473,6.619,6.177
		c-19.353,5.965-15.459-14.589-15.459-14.589c-13.092,14.38,1.288,22.242-5.681,26.693c-6.536,1.653-5.682-7.102-5.588-7.926
		c0.599-3.14,2.215-5.918,4.498-7.974c-4.972,3.336-8.246,9.008-8.246,15.446c0,10.267,8.323,18.59,18.589,18.59
		c10.267,0,18.589-8.323,18.589-18.59C133.007,65.56,127.387,58.44,119.687,56.168"/>
</g>
<g>
	<path style="fill:#FFFFFF;stroke:#FFFFFF;stroke-width:8;stroke-miterlimit:10;" d="M182.09,91.804
		c3.852-7.196,9.151-12.776,15.895-16.745c6.742-3.965,14.251-5.95,22.525-5.95c8.16,0,15.242,1.758,21.25,5.27
		c6.006,3.514,10.482,7.934,13.43,13.26v-17h15.64v93.16h-15.64v-17.34c-3.06,5.439-7.624,9.945-13.685,13.515
		c-6.064,3.57-13.119,5.355-21.165,5.355c-8.274,0-15.754-2.04-22.44-6.12c-6.688-4.08-11.958-9.802-15.81-17.17
		c-3.854-7.366-5.78-15.752-5.78-25.16C176.31,107.358,178.236,99.002,182.09,91.804z M250.94,98.688
		c-2.834-5.211-6.659-9.206-11.475-11.985c-4.818-2.775-10.115-4.165-15.895-4.165c-5.78,0-11.05,1.36-15.81,4.08
		c-4.76,2.72-8.558,6.688-11.39,11.9c-2.834,5.215-4.25,11.335-4.25,18.36c0,7.14,1.416,13.345,4.25,18.615
		c2.832,5.27,6.63,9.294,11.39,12.069c4.76,2.778,10.03,4.165,15.81,4.165c5.78,0,11.077-1.387,15.895-4.165
		c4.816-2.775,8.641-6.8,11.475-12.069c2.832-5.271,4.25-11.417,4.25-18.445C255.19,110.023,253.771,103.903,250.94,98.688z"/>
	<path style="fill:#FFFFFF;stroke:#FFFFFF;stroke-width:8;stroke-miterlimit:10;" d="M297.009,91.804
		c3.852-7.196,9.207-12.776,16.065-16.745c6.856-3.965,14.705-5.95,23.545-5.95c11.446,0,20.88,2.778,28.305,8.33
		c7.422,5.554,12.325,13.26,14.705,23.12h-16.66c-1.588-5.666-4.675-10.141-9.265-13.43c-4.59-3.286-10.285-4.93-17.085-4.93
		c-8.84,0-15.98,3.034-21.42,9.095c-5.44,6.064-8.16,14.649-8.16,25.755c0,11.22,2.72,19.89,8.16,26.01
		c5.44,6.12,12.58,9.181,21.42,9.181c6.8,0,12.466-1.586,17-4.761c4.531-3.171,7.65-7.705,9.35-13.6h16.66
		c-2.494,9.52-7.48,17.144-14.96,22.865c-7.48,5.724-16.83,8.585-28.05,8.585c-8.84,0-16.689-1.981-23.545-5.95
		c-6.858-3.966-12.213-9.576-16.065-16.83c-3.854-7.252-5.78-15.752-5.78-25.5C291.229,107.417,293.155,99.002,297.009,91.804z"/>
	<path style="fill:#FFFFFF;stroke:#FFFFFF;stroke-width:8;stroke-miterlimit:10;" d="M413.969,161.674
		c-5.669-2.436-10.145-5.836-13.431-10.2c-3.288-4.361-5.1-9.376-5.439-15.045h15.979c0.452,4.648,2.636,8.444,6.545,11.39
		c3.91,2.949,9.037,4.421,15.386,4.421c5.892,0,10.54-1.302,13.939-3.91c3.4-2.606,5.101-5.892,5.101-9.86
		c0-4.08-1.814-7.11-5.44-9.095c-3.629-1.981-9.238-3.937-16.83-5.865c-6.914-1.812-12.554-3.655-16.915-5.525
		c-4.364-1.869-8.104-4.646-11.22-8.329c-3.118-3.682-4.675-8.527-4.675-14.535c0-4.76,1.415-9.122,4.25-13.09
		c2.831-3.966,6.855-7.111,12.069-9.435c5.212-2.321,11.162-3.485,17.851-3.485c10.312,0,18.642,2.608,24.989,7.82
		c6.347,5.214,9.746,12.354,10.2,21.42h-15.47c-0.34-4.872-2.295-8.781-5.865-11.73c-3.569-2.946-8.359-4.42-14.365-4.42
		c-5.554,0-9.974,1.19-13.26,3.57c-3.288,2.38-4.93,5.498-4.93,9.35c0,3.06,0.99,5.583,2.975,7.564
		c1.981,1.984,4.477,3.57,7.48,4.76c3.001,1.19,7.166,2.523,12.495,3.995c6.686,1.814,12.126,3.6,16.319,5.355
		c4.192,1.759,7.791,4.394,10.795,7.905c3.002,3.514,4.562,8.104,4.676,13.77c0,5.1-1.419,9.69-4.25,13.771
		c-2.835,4.079-6.829,7.283-11.985,9.604c-5.158,2.321-11.079,3.485-17.765,3.485C426.038,165.329,419.634,164.109,413.969,161.674z
		"/>
	<path style="fill:#FFFFFF;stroke:#FFFFFF;stroke-width:8;stroke-miterlimit:10;" d="M569.177,70.639l-56.1,137.021h-15.98
		l18.36-44.88l-37.57-92.141h17.17l29.24,75.48l28.899-75.48H569.177z"/>
	<path style="fill:#FFFFFF;stroke:#FFFFFF;stroke-width:8;stroke-miterlimit:10;" d="M598.415,161.674
		c-5.669-2.436-10.145-5.836-13.431-10.2c-3.288-4.361-5.1-9.376-5.439-15.045h15.979c0.452,4.648,2.636,8.444,6.545,11.39
		c3.91,2.949,9.037,4.421,15.386,4.421c5.892,0,10.54-1.302,13.939-3.91c3.4-2.606,5.101-5.892,5.101-9.86
		c0-4.08-1.814-7.11-5.44-9.095c-3.629-1.981-9.238-3.937-16.83-5.865c-6.914-1.812-12.554-3.655-16.915-5.525
		c-4.364-1.869-8.104-4.646-11.22-8.329c-3.118-3.682-4.675-8.527-4.675-14.535c0-4.76,1.415-9.122,4.25-13.09
		c2.831-3.966,6.855-7.111,12.069-9.435c5.212-2.321,11.162-3.485,17.851-3.485c10.312,0,18.642,2.608,24.989,7.82
		c6.347,5.214,9.746,12.354,10.2,21.42h-15.47c-0.34-4.872-2.295-8.781-5.865-11.73c-3.569-2.946-8.359-4.42-14.365-4.42
		c-5.554,0-9.974,1.19-13.26,3.57c-3.288,2.38-4.93,5.498-4.93,9.35c0,3.06,0.99,5.583,2.975,7.564
		c1.981,1.984,4.477,3.57,7.48,4.76c3.001,1.19,7.166,2.523,12.495,3.995c6.686,1.814,12.126,3.6,16.319,5.355
		c4.192,1.759,7.791,4.394,10.795,7.905c3.002,3.514,4.562,8.104,4.676,13.77c0,5.1-1.419,9.69-4.25,13.771
		c-2.835,4.079-6.829,7.283-11.985,9.604c-5.158,2.321-11.079,3.485-17.765,3.485C610.484,165.329,604.08,164.109,598.415,161.674z"
		/>
</g>
</svg>
